<svg id="background" xmlns="http://www.w3.org/2000/svg" xmlns:xlink="http://www.w3.org/1999/xlink" width="640" height="768" viewBox="0 0 640 768">
  <defs>
    <linearGradient id="linear-gradient" y1="1" x2="1" gradientUnits="objectBoundingBox">
      <stop offset="0" stop-color="#5c6ccd"/>
      <stop offset="1" stop-color="#5753b5"/>
    </linearGradient>
    <linearGradient id="linear-gradient-2" x1="0.897" y1="0.14" x2="0.206" y2="0.877" gradientUnits="objectBoundingBox">
      <stop offset="0" stop-color="#242348"/>
      <stop offset="1" stop-color="#5a55aa"/>
    </linearGradient>
    <clipPath id="clip-path">
      <rect id="Rectangle_179" data-name="Rectangle 179" width="640" height="768" fill="url(#linear-gradient)"/>
    </clipPath>
    <linearGradient id="linear-gradient-3" x1="0.5" x2="0.5" y2="1" gradientUnits="objectBoundingBox">
      <stop offset="0" stop-color="#a7a7ff"/>
      <stop offset="1" stop-color="#fff" stop-opacity="0"/>
    </linearGradient>
    <linearGradient id="linear-gradient-5" x1="0.5" x2="0.5" y2="1" gradientUnits="objectBoundingBox">
      <stop offset="0" stop-color="#54d8ff"/>
      <stop offset="1" stop-color="#fff" stop-opacity="0"/>
    </linearGradient>
  </defs>
  <rect id="Rectangle_176" data-name="Rectangle 176" width="640" height="768" fill="url(#linear-gradient-2)"/>
  <g id="Group_4" data-name="Group 4" clip-path="url(#clip-path)">
    <g id="Products_Sold_Graph" data-name="Products Sold Graph" transform="translate(-438.602 227.307)" opacity="0.201">
      <path id="Filled.Graph" d="M330,672.157V497.62S576.8,612.1,774,619.291c213.231-6.968,250.155-55.962,416.246-121.671,141.933-54.769,283.477-69.8,419.334-65.931s253.61,63.035,414.089,69.1c283.1-24.427,427.544-147.929,446.671-199.51V737.069L330,737.262Z" transform="translate(-330 -299.241)" opacity="0.7" fill="url(#linear-gradient-3)"/>
      <path id="Line.Graph" d="M313,444.076s245.21,117.21,439.09,119.734,268.35-60.485,416.85-119.578,289.672-69.178,419.643-67.191,256.32,63.911,416.016,67.2,418.049-107.042,446.778-199" transform="translate(-311.036 -245.24)" fill="none" stroke="#a3a0fb" stroke-width="2"/>
      <g id="Mar.Ellipse" transform="translate(848.496 189.999)" fill="#fff" stroke="#a4a1fb" stroke-width="2">
        <circle cx="9.807" cy="9.807" r="9.807" stroke="none"/>
        <circle cx="9.807" cy="9.807" r="8.807" fill="none"/>
      </g>
      <g id="Feb.Ellipse" transform="translate(564.904 298.58)" fill="#fff" stroke="#a4a1fb" stroke-width="2">
        <circle cx="9.807" cy="9.807" r="9.807" stroke="none"/>
        <circle cx="9.807" cy="9.807" r="8.807" fill="none"/>
      </g>
    </g>
    <g id="Products_Sold_Graph-2" data-name="Products Sold Graph" transform="translate(-540.202 413.707)" opacity="0.201">
      <path id="Filled.Graph-2" data-name="Filled.Graph" d="M330,672.157V497.62S576.8,612.1,774,619.291c213.231-6.968,250.155-55.962,416.246-121.671,141.933-54.769,283.477-69.8,419.334-65.931s253.61,63.035,414.089,69.1c283.1-24.427,427.544-147.929,446.671-199.51V737.069L330,737.262Z" transform="translate(-330 -299.241)" opacity="0.7" fill="url(#linear-gradient-3)"/>
      <path id="Line.Graph-2" data-name="Line.Graph" d="M313,444.076s245.21,117.21,439.09,119.734,268.35-60.485,416.85-119.578,289.672-69.178,419.643-67.191,256.32,63.911,416.016,67.2,418.049-107.042,446.778-199" transform="translate(-311.036 -245.24)" fill="none" stroke="#a3a0fb" stroke-width="2"/>
      <g id="Mar.Ellipse-2" data-name="Mar.Ellipse" transform="translate(848.496 189.999)" fill="#fff" stroke="#a4a1fb" stroke-width="2">
        <circle cx="9.807" cy="9.807" r="9.807" stroke="none"/>
        <circle cx="9.807" cy="9.807" r="8.807" fill="none"/>
      </g>
    </g>
    <g id="Total_Views_Graph" data-name="Total Views Graph" transform="translate(-563.439 245.148)" opacity="0.201">
      <path id="Filled.Graph-3" data-name="Filled.Graph" d="M330,620.945V354.422S570.885,619.4,768.762,629.374c220.781-2.246,222.591-137.562,416.6-211.638,162.419-58.165,286.353,100.5,422.21,104.367s229.618-108.74,414.968-116.564c240.143,11.782,432.841,162.234,447.794,170.323V685.857L330,686.051Z" transform="translate(-328.673 -354.422)" opacity="0.7" fill="url(#linear-gradient-5)"/>
      <path id="Line.Graph-3" data-name="Line.Graph" d="M312.953,279.164s248.382,269.863,442.5,272.387,260.5-159,416.367-213.459S1462.9,441.964,1593.032,443.951,1847.757,325,2007.649,328.289s342.7,94.768,443.765,166.931" transform="translate(-312.953 -276.906)" fill="none" stroke="#54d8ff" stroke-width="2"/>
      <g id="May.Ellipse" transform="translate(1680.241 41.208)" fill="#fff" stroke="#55d8fe" stroke-width="2">
        <circle cx="9.807" cy="9.807" r="9.807" stroke="none"/>
        <circle cx="9.807" cy="9.807" r="8.807" fill="none"/>
      </g>
      <g id="Mar.Ellipse-3" data-name="Mar.Ellipse" transform="translate(912.912 40.547)" fill="#fff" stroke="#55d8fe" stroke-width="2">
        <circle cx="9.807" cy="9.807" r="9.807" stroke="none"/>
        <circle cx="9.807" cy="9.807" r="8.807" fill="none"/>
      </g>
    </g>
    <g id="Total_Views_Graph-2" data-name="Total Views Graph" transform="translate(-805.619 333.418)" opacity="0.201">
      <path id="Filled.Graph-4" data-name="Filled.Graph" d="M330,620.945V354.422S570.885,619.4,768.762,629.374c220.781-2.246,222.591-137.562,416.6-211.638,162.419-58.165,286.353,100.5,422.21,104.367s229.618-108.74,414.968-116.564c240.143,11.782,432.841,162.234,447.794,170.323V685.857L330,686.051Z" transform="translate(-329.473 -354.422)" opacity="0.7" fill="url(#linear-gradient-5)"/>
      <path id="Line.Graph-4" data-name="Line.Graph" d="M312.953,279.164s248.382,269.863,442.5,272.387,260.5-159,416.367-213.459S1462.9,441.964,1593.032,443.951,1847.757,325,2007.649,328.289s342.7,94.768,443.765,166.931" transform="translate(-312.953 -276.906)" fill="none" stroke="#54d8ff" stroke-width="2"/>
      <g id="Apr.Ellipse" transform="translate(1349.608 145.861)" fill="#fff" stroke="#55d8fe" stroke-width="2">
        <circle cx="9.807" cy="9.807" r="9.807" stroke="none"/>
        <circle cx="9.807" cy="9.807" r="8.807" fill="none"/>
      </g>
      <g id="Mar.Ellipse-4" data-name="Mar.Ellipse" transform="translate(847.043 51.026)" fill="#fff" stroke="#55d8fe" stroke-width="2">
        <circle cx="9.807" cy="9.807" r="9.807" stroke="none"/>
        <circle cx="9.807" cy="9.807" r="8.807" fill="none"/>
      </g>
    </g>
  </g>
</svg>
